<svg width="164" height="44" viewBox="0 0 164 44" fill="none" xmlns="http://www.w3.org/2000/svg">
<path d="M54.5772 11.7197H50.7871V28.8215H61.2793V25.4705H54.5772V11.7197Z" fill="#243A5A"/>
<path d="M61.6414 23.0208C61.6414 26.6723 64.0911 29.0988 67.7887 29.0988C71.4633 29.0988 73.913 26.6723 73.913 23.0208C73.913 19.3693 71.4633 16.9196 67.7887 16.9196C64.0911 16.9196 61.6414 19.3693 61.6414 23.0208ZM65.2234 22.9976C65.2234 21.2644 66.2403 20.1089 67.7887 20.1089C69.314 20.1089 70.3309 21.2644 70.3309 22.9976C70.3309 24.7541 69.314 25.9096 67.7887 25.9096C66.2403 25.9096 65.2234 24.7541 65.2234 22.9976Z" fill="#243A5A"/>
<path d="M74.4854 22.8359C74.4854 26.3255 76.7503 28.6828 79.9626 28.6828C81.5111 28.6828 82.8515 28.1282 83.5216 27.2269V28.8215C83.5216 30.4161 82.5279 31.4791 80.7715 31.4791C79.2 31.4791 78.1138 30.7397 78.0445 29.4224H74.4392C74.7628 32.5885 77.2125 34.7146 80.5635 34.7146C84.5154 34.7146 87.0113 32.1494 87.0113 28.0819V17.2663H83.799L83.6141 18.4448C82.967 17.4974 81.6035 16.8734 80.032 16.8734C76.7965 16.8734 74.4854 19.3 74.4854 22.8359ZM78.0907 22.7434C78.0907 21.0794 79.2 19.9702 80.6097 19.9702C82.2506 19.9702 83.4523 21.0564 83.4523 22.7434C83.4523 24.4305 82.2736 25.586 80.6328 25.586C79.2231 25.586 78.0907 24.4305 78.0907 22.7434Z" fill="#243A5A"/>
<path d="M88.0485 23.0208C88.0485 26.6723 90.4982 29.0988 94.1959 29.0988C97.8705 29.0988 100.32 26.6723 100.32 23.0208C100.32 19.3693 97.8705 16.9196 94.1959 16.9196C90.4982 16.9196 88.0485 19.3693 88.0485 23.0208ZM91.6307 22.9976C91.6307 21.2644 92.6474 20.1089 94.1959 20.1089C95.7211 20.1089 96.738 21.2644 96.738 22.9976C96.738 24.7541 95.7211 25.9096 94.1959 25.9096C92.6474 25.9096 91.6307 24.7541 91.6307 22.9976Z" fill="#243A5A"/>
<path d="M103.389 15.4637C104.498 15.4637 105.399 14.5623 105.399 13.43C105.399 12.2975 104.498 11.4193 103.389 11.4193C102.256 11.4193 101.355 12.2975 101.355 13.43C101.355 14.5623 102.256 15.4637 103.389 15.4637ZM101.586 28.8215H105.168V17.2663H101.586V28.8215Z" fill="#243A5A"/>
<path d="M107.254 34.3681H110.767V27.6661C111.436 28.5443 112.962 29.1452 114.557 29.1452C118 29.1452 120.08 26.5106 119.988 22.8591C119.895 19.1383 117.746 16.8966 114.533 16.8966C112.892 16.8966 111.344 17.613 110.697 18.6762L110.512 17.2664H107.254V34.3681ZM110.835 23.044C110.835 21.3107 111.991 20.1552 113.655 20.1552C115.342 20.1552 116.405 21.3338 116.405 23.044C116.405 24.7542 115.342 25.9328 113.655 25.9328C111.991 25.9328 110.835 24.7773 110.835 23.044Z" fill="#243A5A"/>
<path d="M120.366 25.1701C120.459 27.5043 122.308 29.122 125.22 29.122C128.016 29.122 129.958 27.6429 129.958 25.2626C129.958 23.5525 128.941 22.42 127.045 21.9578L124.989 21.4494C124.25 21.2645 123.787 21.0796 123.787 20.4787C123.787 19.8778 124.272 19.4849 124.989 19.4849C125.797 19.4849 126.329 20.0165 126.306 20.8022H129.519C129.426 18.3987 127.6 16.8966 125.058 16.8966C122.493 16.8966 120.575 18.4219 120.575 20.7329C120.575 22.2813 121.43 23.5525 123.717 24.1533L125.751 24.6848C126.352 24.8466 126.606 25.1239 126.606 25.5168C126.606 26.0946 126.075 26.4644 125.173 26.4644C124.133 26.4644 123.579 25.979 123.579 25.1701H120.366Z" fill="#243A5A"/>
<path d="M135.405 29.122C136.815 29.122 138.224 28.4749 138.941 27.5274L139.172 28.8216H142.523V17.2664H138.964V23.2751C138.964 25.0083 138.456 25.9558 136.815 25.9558C135.543 25.9558 134.712 25.3781 134.712 23.2289V17.2664H131.152V24.523C131.152 27.2732 132.678 29.122 135.405 29.122Z" fill="#243A5A"/>
<path d="M148.167 28.8215V22.5124C148.167 20.571 149.207 20.0164 150.224 20.0164C151.356 20.0164 152.096 20.7097 152.096 22.1426V28.8215H155.609V22.5124C155.609 20.548 156.625 19.9933 157.642 19.9933C158.774 19.9933 159.537 20.6866 159.537 22.1426V28.8215H163.004V21.2644C163.004 18.6298 161.617 16.8734 158.636 16.8734C156.972 16.8734 155.609 17.6822 155.008 18.9302C154.315 17.6822 153.113 16.8734 151.194 16.8734C149.924 16.8734 148.745 17.4511 148.052 18.3755L147.913 17.2663H144.585V28.8215H148.167Z" fill="#243A5A"/>
<path d="M0 22C0 12.0245 0 7.03674 3.099 3.93774C6.19799 0.838745 11.1858 0.838745 21.1613 0.838745C31.1368 0.838745 36.1245 0.838745 39.2236 3.93774C42.3226 7.03674 42.3226 12.0245 42.3226 22C42.3226 31.9756 42.3226 36.9633 39.2236 40.0624C36.1245 43.1613 31.1368 43.1613 21.1613 43.1613C11.1858 43.1613 6.19799 43.1613 3.099 40.0624C0 36.9633 0 31.9756 0 22Z" fill="#243A5A"/>
<path d="M25.3935 28.3484C25.9779 28.3484 26.4623 28.8267 26.3462 29.3995C26.1411 30.411 25.6427 31.3485 24.9021 32.0892C23.91 33.0813 22.5644 33.6387 21.1613 33.6387C19.7582 33.6387 18.4126 33.0813 17.4205 32.0892C16.6798 31.3485 16.1815 30.411 15.9764 29.3995C15.8603 28.8267 16.3447 28.3484 16.929 28.3484H25.3935Z" fill="#2DF8BB"/>
<path d="M27.6178 19.6473C27.0534 19.7985 26.7077 20.3891 26.9939 20.8985C27.2951 21.4347 27.7118 21.9027 28.2187 22.266C29.0146 22.8362 29.9836 23.113 30.9607 23.0489C31.9377 22.9849 32.8623 22.5841 33.577 21.9148C34.2917 21.2454 34.752 20.349 34.8799 19.3782C35.0077 18.4074 34.795 17.4223 34.2779 16.5908C33.7608 15.7594 32.9714 15.1329 32.0442 14.8181C31.1171 14.5034 30.1095 14.5199 29.1931 14.8648C28.6094 15.0844 28.0859 15.4286 27.6561 15.8686C27.2478 16.2866 27.4289 16.9465 27.9349 17.2387L28.4717 17.5486C29.288 18.0199 29.1271 19.243 28.2165 19.4869L27.6178 19.6473Z" fill="#2DF8BB"/>
<path d="M14.7049 19.6473C15.2693 19.7985 15.615 20.3891 15.3288 20.8985C15.0276 21.4347 14.6109 21.9027 14.1041 22.266C13.3082 22.8362 12.3391 23.113 11.3621 23.0489C10.385 22.9849 9.46039 22.5841 8.74574 21.9148C8.03109 21.2454 7.57064 20.349 7.44283 19.3782C7.31503 18.4074 7.52777 17.4223 8.04484 16.5908C8.56189 15.7594 9.35127 15.1329 10.2785 14.8181C11.2056 14.5034 12.2133 14.5199 13.1297 14.8648C13.7133 15.0844 14.2369 15.4286 14.6667 15.8686C15.075 16.2866 14.8938 16.9465 14.3878 17.2387L13.851 17.5486C13.0347 18.0199 13.1958 19.243 14.1062 19.4869L14.7049 19.6473Z" fill="#2DF8BB"/>
</svg>
